<svg width="46" height="46" viewBox="0 0 46 46" fill="none" xmlns="http://www.w3.org/2000/svg">
<path d="M45 37H1V31H45V37Z" fill="#A6EACA"/>
<path d="M44 37H2C1.45 37 1 36.55 1 36V4C1 3.45 1.45 3 2 3H44C44.55 3 45 3.45 45 4V36C45 36.55 44.55 37 44 37Z" stroke="#404145" stroke-width="1.5" stroke-miterlimit="10"/>
<path d="M28 39V43" stroke="#404145" stroke-width="1.5" stroke-miterlimit="10"/>
<path d="M19 43V39" stroke="#404145" stroke-width="1.5" stroke-miterlimit="10"/>
<path d="M32 43H15" stroke="#404145" stroke-width="1.5" stroke-miterlimit="10"/>
<path d="M1 31H45" stroke="#404145" stroke-width="1.5" stroke-miterlimit="10"/>
<path d="M22 34H25" stroke="#404145" stroke-width="1.5" stroke-miterlimit="10"/>
<path d="M4 7H12" stroke="#404145" stroke-width="1.5" stroke-miterlimit="10"/>
<path d="M8 11H11" stroke="#404145" stroke-width="1.5" stroke-miterlimit="10"/>
<path d="M12 11H24" stroke="#404145" stroke-width="1.5" stroke-miterlimit="10"/>
<path d="M8 15H17" stroke="#404145" stroke-width="1.5" stroke-miterlimit="10"/>
<path d="M18 15H22" stroke="#404145" stroke-width="1.5" stroke-miterlimit="10"/>
<path d="M8 23H11" stroke="#404145" stroke-width="1.5" stroke-miterlimit="10"/>
<path d="M12 23H31" stroke="#404145" stroke-width="1.5" stroke-miterlimit="10"/>
<path d="M8 27H17" stroke="#404145" stroke-width="1.5" stroke-miterlimit="10"/>
<path d="M18 27H22" stroke="#404145" stroke-width="1.5" stroke-miterlimit="10"/>
<path d="M4 19H13" stroke="#404145" stroke-width="1.5" stroke-miterlimit="10"/>
</svg>
