<?xml version="1.0" encoding="UTF-8"?>
<svg id="Layer_1" data-name="Layer 1" xmlns="http://www.w3.org/2000/svg" viewBox="0 0 46 46">
  <defs>
    <style>
      .cls-1, .cls-2 {
        fill: none;
      }

      .cls-1, .cls-2, .cls-3 {
        stroke: #404145;
        stroke-width: 1.5px;
      }

      .cls-1, .cls-3 {
        stroke-miterlimit: 10;
      }

      .cls-2 {
        stroke-linejoin: round;
      }

      .cls-3 {
        fill: #a6eaca;
      }
    </style>
  </defs>
  <path class="cls-1" d="m35.29,15.98v-4.09s-.55,0-.55,0c-1.13,0-2.15-.69-2.58-1.74,0-.01,0-.02-.01-.03-.43-1.04-.19-2.24.6-3.03l.39-.39-2.89-2.89-.39.39c-.8.8-1.99,1.03-3.03.6-.01,0-.02,0-.03-.01-1.05-.43-1.74-1.44-1.74-2.58v-.56h-4.09v.56c0,1.13-.69,2.15-1.74,2.58-.01,0-.03.01-.04.02-1.04.43-2.24.19-3.03-.6l-.39-.39-2.89,2.89.39.39c.8.8,1.03,1.99.6,3.03,0,.01-.01.02-.01.04-.43,1.05-1.44,1.73-2.57,1.74h-.56v4.09m6.54,0v-1.8c0-1.49.55-2.98,1.68-4.11,2.24-2.25,5.9-2.25,8.14,0,1.14,1.14,1.69,2.63,1.68,4.12v1.8"/>
  <g>
    <path class="cls-1" d="m41.78,38.72V13.28c0-.74-.61-1.35-1.35-1.35h-3.04"/>
    <path class="cls-1" d="m8.61,11.93h-3.04c-.74,0-1.35.61-1.35,1.35v25.43"/>
    <path class="cls-1" d="m31.28,38.72l-1.42,1.81h-13.73l-1.42-1.81H1.93l.06,3.08c.03,1.42,1.19,2.56,2.61,2.56h36.79c1.42,0,2.59-1.14,2.61-2.56l.06-3.08h-12.78Z"/>
  </g>
  <g>
    <rect class="cls-3" x="10.71" y="19.5" width="24.58" height="15.01"/>
    <g>
      <path class="cls-2" d="m27.44,30.76l3.56-3.56-3.56-3.56"/>
      <path class="cls-2" d="m18.56,30.76l-3.56-3.56,3.56-3.56"/>
      <path class="cls-2" d="m24.78,22.76l-3.56,8.89"/>
    </g>
  </g>
</svg>