<?xml version="1.0" encoding="UTF-8"?>
<svg id="Layer_1" data-name="Layer 1" xmlns="http://www.w3.org/2000/svg" viewBox="0 0 46 46">
  <defs>
    <style>
      .cls-1 {
        fill: none;
      }

      .cls-1, .cls-2 {
        stroke: #404145;
        stroke-miterlimit: 10;
        stroke-width: 1.5px;
      }

      .cls-2 {
        fill: #a6eaca;
      }
    </style>
  </defs>
  <g>
    <line class="cls-1" x1="23" y1="30.17" x2="23" y2="37.86"/>
    <line class="cls-1" x1="23" y1="25.53" x2="23" y2="28.19"/>
    <circle class="cls-2" cx="23" cy="41.12" r="3.26"/>
    <g>
      <circle class="cls-2" cx="37.52" cy="36.15" r="3.26"/>
      <path class="cls-1" d="m28.28,22.57v11.4c0,1.21.98,2.18,2.18,2.18h4.25"/>
      <circle class="cls-2" cx="8.48" cy="36.15" r="3.26"/>
    </g>
  </g>
  <g>
    <path class="cls-1" d="m12.94,19.38v-6.05c0-1.11.9-2.02,2.02-2.02h1.09c1.11,0,2.02.9,2.02,2.02v6.05"/>
    <path class="cls-1" d="m21.1,19.38v-6.05c0-1.11.9-2.02,2.02-2.02h1.09c1.11,0,2.02.9,2.02,2.02h0c0,1.11-.9,2.02-2.02,2.02h-2.98"/>
    <line class="cls-1" x1="27.8" y1="11.47" x2="33.06" y2="11.47"/>
    <line class="cls-1" x1="27.8" y1="18.78" x2="33.06" y2="18.78"/>
    <line class="cls-1" x1="30.43" y1="18.95" x2="30.43" y2="11.47"/>
    <line class="cls-1" x1="18.06" y1="15.35" x2="12.94" y2="15.35"/>
  </g>
  <path class="cls-1" d="m20.07,23h19.19c3.23,0,5.84-2.62,5.84-5.84s-2.62-5.84-5.84-5.84h-.24c0-2.69-2.18-4.87-4.87-4.87h-5.87c-1.11-2.2-3.38-3.71-6.01-3.71h-8.56c-3.72,0-6.73,3.01-6.73,6.73,0,.64.1,1.27.27,1.86h-.51c-3.23,0-5.84,2.62-5.84,5.84s2.62,5.84,5.84,5.84h10.98s0,10.97,0,10.97c0,1.21-.98,2.18-2.18,2.18h-4.25"/>
  <line class="cls-1" x1="7.25" y1="11.31" x2="9.97" y2="11.31"/>
</svg>