<svg width="47" height="46" viewBox="0 0 47 46" fill="none" xmlns="http://www.w3.org/2000/svg">
<path d="M1 18H7C6.42 18.45 6 19.23 6 20C6 21.66 7.34 23 9 23C10.66 23 12 21.66 12 20C12 19.23 11.58 18.48 11 18H18" stroke="#404145" stroke-width="1.5" stroke-miterlimit="10" stroke-linejoin="round"/>
<path d="M18 18H24C23.42 16.93 22.93 16.7399 23.01 15.8199C23.12 14.4899 24.09 13.3099 25.39 13.0599C27.31 12.6799 29 14.14 29 16C29 16.77 28.54 17.5 28 18H39V2C39 1.45 38.55 1 38 1H2C1.45 1 1 1.45 1 2V34H7C6.42 34.45 6 35.23 6 36C6 37.66 7.34 39 9 39C10.66 39 12 37.66 12 36C12 35.23 11.58 34.48 11 34H18V28C18.84 28.89 19.92 29.3599 21.23 28.6699C22.26 28.1299 23.02 27.0999 23 25.9399C22.97 24.3099 21.64 23 20 23C19.23 23 18.47 23.38 18 24V18" stroke="#404145" stroke-width="1.5" stroke-miterlimit="10" stroke-linejoin="round"/>
<path d="M34.3217 44.63L38.5617 40.39C38.4717 41.12 38.7217 41.97 39.2717 42.51C40.4417 43.68 42.3417 43.68 43.5117 42.51C44.6817 41.34 44.6817 39.44 43.5117 38.27C42.9617 37.72 42.1417 37.4999 41.3917 37.5599L45.6317 33.3199L41.3917 29.08C42.6117 29.11 43.7017 28.69 44.1517 27.27C44.5017 26.16 44.3117 24.89 43.4717 24.09C42.3017 22.96 40.4317 22.97 39.2717 24.13C38.7217 24.68 38.4517 25.48 38.5617 26.25L34.3217 22.01L30.0817 26.25C30.8317 26.18 31.6617 26.41 32.2017 26.96C33.3717 28.13 33.3717 30.03 32.2017 31.2C31.0317 32.37 29.1317 32.37 27.9617 31.2C27.4117 30.65 27.1617 29.81 27.2517 29.08L23.0117 33.3199L34.3217 44.63Z" fill="#A6EACA" stroke="#404145" stroke-width="1.5" stroke-miterlimit="10" stroke-linejoin="round"/>
<path d="M3.03906 7H37.0391" stroke="#404145" stroke-width="1.5" stroke-miterlimit="10" stroke-linejoin="round"/>
<path d="M4.03906 4H6.03906" stroke="#404145" stroke-width="1.5" stroke-miterlimit="10" stroke-linejoin="round"/>
<path d="M7.03906 4H9.03906" stroke="#404145" stroke-width="1.5" stroke-miterlimit="10" stroke-linejoin="round"/>
</svg>
